<?xml version="1.0" encoding="UTF-8"?>
<svg width="68px" height="102px" viewBox="0 0 68 102" version="1.1" xmlns="http://www.w3.org/2000/svg" xmlns:xlink="http://www.w3.org/1999/xlink">
    <title>timg_bg</title>
    <defs>
        <rect id="path-1" x="0.0103626943" y="-3.55271368e-14" width="64.0414508" height="94.6458333" rx="8.00000012"></rect>
        <filter x="-6.2%" y="-2.1%" width="112.5%" height="108.5%" filterUnits="objectBoundingBox" id="filter-2">
            <feOffset dx="0" dy="2" in="SourceAlpha" result="shadowOffsetOuter1"></feOffset>
            <feGaussianBlur stdDeviation="1" in="shadowOffsetOuter1" result="shadowBlurOuter1"></feGaussianBlur>
            <feColorMatrix values="0 0 0 0 0   0 0 0 0 0   0 0 0 0 0  0 0 0 0.1 0" type="matrix" in="shadowBlurOuter1"></feColorMatrix>
        </filter>
        <linearGradient x1="50%" y1="0%" x2="50%" y2="100%" id="linearGradient-3">
            <stop stop-color="#000000" offset="0%"></stop>
            <stop stop-color="#212121" offset="100%"></stop>
        </linearGradient>
    </defs>
    <g id="页面-1" stroke="none" stroke-width="1" fill="none" fill-rule="evenodd">
        <g id="画板" transform="translate(-1384.000000, -832.000000)">
            <g id="编组-3" transform="translate(1384.000000, 832.000000)">
                <g id="编组-21" transform="translate(0.000000, 0.041667)">
                    <g id="编组" transform="translate(2.000000, 1.000000)">
                        <g id="Shadow" fill="black" fill-opacity="1">
                            <use filter="url(#filter-2)" xlink:href="#path-1"></use>
                        </g>
                        <path d="M56.0542652,0.800000012 C58.0422652,0.800000012 59.8420527,1.60531 61.1446232,2.9084243 C62.4466773,4.21102213 63.2518135,6.01096205 63.2518135,8.00088755 L63.2518135,8.00088755 L63.2518135,47.325 L0.810362706,47.325 L0.810362706,8.00088755 C0.810362706,6.01234999 1.61596462,4.21205167 2.91856128,2.90891113 C4.22099921,1.60592938 6.02031688,0.800000012 8.00791097,0.800000012 L8.00791097,0.800000012 Z" id="Flip-Top" stroke="#000000" stroke-width="1.60000002" fill="url(#linearGradient-3)"></path>
                        <path d="M56.0439025,47.7583333 C58.0319025,47.7583333 59.8316901,48.5636433 61.1342605,49.8667576 C62.4363147,51.1693555 63.2414508,52.9692954 63.2414508,54.9592209 L63.2414508,54.9592209 L63.2414508,94.2833333 L0.800000012,94.2833333 L0.800000012,54.9592209 C0.800000012,52.9706833 1.60560192,51.170385 2.90819859,49.8672445 C4.21063652,48.5642627 6.00995419,47.7583333 7.99754828,47.7583333 L7.99754828,47.7583333 Z" id="Flip-Bottom" stroke="#000000" stroke-width="1.60000002" fill="url(#linearGradient-3)" transform="translate(32.020725, 71.020833) scale(1, -1) translate(-32.020725, -71.020833) "></path>
                        <polygon id="Separator" fill="#000000" points="3.21243523 46.5208333 60.8497409 46.5208333 60.8497409 48.125 3.21243523 48.125"></polygon>
                        <path d="M59.2487047,40.1041667 C60.1329326,40.1041667 60.8497409,40.8309124 60.8497409,41.7035692 L60.8497409,51.3380975 C60.8497409,52.1723495 60.2158643,52.8574197 59.3953481,52.9309638 L59.2487047,52.9375 C58.3644767,52.9375 57.6476684,52.2107543 57.6476684,51.3380975 L57.6476684,41.7035692 C57.6476684,40.8693172 58.281545,40.184247 59.1020613,40.1107029 L59.2487047,40.1041667 Z M4.8134715,40.1041667 C5.69769942,40.1041667 6.41450777,40.8309124 6.41450777,41.7035692 L6.41450777,51.3380975 C6.41450777,52.1723495 5.78063116,52.8574197 4.96011489,52.9309638 L4.8134715,52.9375 C3.92924359,52.9375 3.21243523,52.2107543 3.21243523,51.3380975 L3.21243523,41.7035692 C3.21243523,40.8693172 3.84631185,40.184247 4.66682811,40.1107029 L4.8134715,40.1041667 Z" id="Flip-Holder" fill="#000000"></path>
                    </g>
                </g>
            </g>
        </g>
    </g>
</svg>